<svg xmlns="http://www.w3.org/2000/svg" viewBox="0 0 24 24" fill="none">
  <rect width="24" height="24" rx="6" fill="#0F172A"/>
  <path fill="#22C55E" d="M11.47 3.53a.75.75 0 0 1 1.06 0l1.5 1.5a.75.75 0 0 1-.53 1.28h-.47l-.22 2.15a.75.75 0 0 1-.74.66h-.08a.75.75 0 0 1-.74-.66l-.22-2.15h-.47a.75.75 0 0 1-.53-1.28l1.5-1.5Z"/>
  <path fill="#A855F7" d="M6.22 10.22a.75.75 0 0 1 1.06 0l.97.97.9-1.17a.75.75 0 0 1 1.35.43v4a.75.75 0 0 1-1.28.53l-.97-.97-.9 1.17a.75.75 0 0 1-1.35-.43v-4a.75.75 0 0 1 .22-.53Z"/>
  <path fill="#38BDF8" d="M14.97 11.03a.75.75 0 0 1 1.06 0l.75.75.9-1.17a.75.75 0 0 1 1.35.43v4a.75.75 0 0 1-1.28.53l-.97-.97-.9 1.17a.75.75 0 0 1-1.35-.43v-4a.75.75 0 0 1 .22-.53Z"/>
  <path fill="#FACC15" d="M10.22 18.22a.75.75 0 0 1 1.06 0l1.06 1.06 1.06-1.06a.75.75 0 0 1 1.28.53v.5a.75.75 0 0 1-.75.75h-.5l-.09.86a.75.75 0 0 1-.75.68h-.53a.75.75 0 0 1-.75-.68l-.09-.86h-.5a.75.75 0 0 1-.75-.75v-.5a.75.75 0 0 1 .22-.53Z"/>
</svg>



